<?xml version="1.0" encoding="UTF-8"?>
<svg id="Layer_2" data-name="Layer 2" xmlns="http://www.w3.org/2000/svg" viewBox="0 0 1246.87 1027.7">
  <defs>
    <style>
      .cls-1 {
        fill: #1bb680;
        stroke-width: 0px;
      }
    </style>
  </defs>
  <text/>
  <path class="cls-1" d="M769.6,557.24c-2.3-5.41-4.65-8.34-6.6-9.74-1.56-1.11-3.93-.26-4.05,1.65-.42,6.49-71.94,23.85-77.29,25.13-.16.04-.33-.07-.35-.24-6.38-61.19,46.42-214.69,49.96-227.4.15-.54.43-1.03.81-1.44,8.29-9,5.23-11.34,3.8-11.9-.31-.12-.65-.15-.97-.12-9.12.96-21.08-4.93-24.04-8.82-1.3-1.71-.35,2.36-.21,3.25.21,1.26.2,2,.21,2.89,0,0,.96,29.31-8.43,69.37l-40.82,143.19c-.09.67-.12.85-.06,1.29.1.83-1.93.73-21.52-14.38-.09-.07-.13-.19-.12-.3l15.16-94.76c.02-.1.08-.19.18-.23l26.83-13.7c.17-.09.36-.14.56-.16l7.59-.74c8.42-.82,5.2-24.6,5.2-24.6-.6-6.43-2.48-11.33-4-14.38-.62-1.26-2.48-1.01-2.78.37-4.77,21.63-24.87,33.85-31.9,36.22-1.19.4-1.89-.26-1.57-1.48l26.56-98.04c.24-.89.66-1.72,1.23-2.44l3.32-4.23c3.45-4.31.39-5.37-1.31-5.62-.52-.07-.99.25-1.17.74-2.45,6.39-23.76,14.77-23.76,14.77-4.85,3.12,2.31,7.5,3.61,8.26.12.07.18.2.15.33l-21.8,92.92c-.23,1.01-.77,1.91-1.56,2.59-12.7,10.97-42.54,23.05-43.73,23.52-.02,0-.04.02-.07.04-1.76,1.86-2.33,4.23-2.33,6.52,0,3.79,1.56,7.36,1.86,8.01.03.06.06.13.1.19,4.1,6.57,7.03,5.66,8.1,4.97l.62-.7,3.49-6.93c.66-1.31,1.64-2.43,2.85-3.24,4.65-3.15,17.14-11.25,28.1-14.96.21-.07.42.1.39.32-.92,6.4-10.96,75.95-10.96,75.59,0-.19-10.07-7.77-20.14-15.31-9.59-7.17-19.18-14.3-20.1-14.99-.05-.04-.1-.07-.16-.1-11.64-6.69-18.02-7.52-19.86-7.61-.24,0-.36-.27-.22-.47,33.25-45.99,47.68-105.64,47.68-105.64,10.9-39.98,21.65-77.7,9.98-82.62-9.91-4.19-28.3,16.13-44.14,47.32l-34.08,69.26c-.13.26-.5.22-.58-.05l-10.8-40.09c-.23-.86.11-1.76.82-2.29,10.52-7.9-6.17-18.05-6.55-14.01-.28,3.14-9.34,4.78-13.85,5.4-2,.27-3.99.7-5.91,1.31-10.18,3.2-8.62,4.91-7.29,5.55,1.16.56,2.26,1.23,3.3,1.98,29.69,21.4,34.04,71.34,34.38,75.97l-.08.66-15.6,50.69c-.76,2.49-1.38,5-1.85,7.56-2.89,15.72-11.29,70.1,11.84,63.9,26-6.95,27.75-57.26,27.84-61.02,0-.13.09-.25.22-.29,18.31-5.92,61.45,32.4,63.89,34.59.07.07.11.15.1.24l-4.76,79.71c-.1,1.83.91,3.54,2.56,4.34.56.27,1.12.55,1.65.82,4.04,2.05,7.71,4.78,10.72,8.17,1.8,2.04,3.31,3.15,4.55,3.67,2.62,1.11,5.22-1.65,4.1-4.25-12.09-27.94-7.62-80.78-7.07-86.73.02-.24.3-.36.5-.22l18.45,14.02c.08.07.13.16.12.26-.1,1.99-1.15,22.25-1.51,28.76-.36,6.42,8.33,10.83,9.4,11.35.07.04.15.04.22,0,48.61-23.15,72.93-24.67,80.15-24.29,5.37.28,13.67,13.56,17.59,20.39.86,1.51,3.11,1.23,3.59-.44,2.37-8.12,6.49-25.68,1.65-37.07ZM533.95,546.12c-3.09-4.79-11.43-24.7,13.49-78.42.63-1.35,2.62-1.14,2.94.32,3.26,14.61,11.52,62.09-14.26,78.57-.73.47-1.7.26-2.17-.47ZM561.31,466.78l-6.21-47.37c-.03-.24,0-.48.07-.7,13.96-41.69,50.16-100.15,51.21-101.85.02-.03.03-.05.05-.08,23.93-33.79,14.81.04,14.81.04-23.29,87.74-49.26,136.95-57.03,150.53-.74,1.3-2.71.91-2.9-.58Z"/>
</svg>